# xmcd
#
# Track frame offsets:
#	150
#	14598
#	32017
#	46273
#	61808
#	78637
#	98641
#	117016
#	140788
#	161782
#	172634
#	184961
#	199146
#	219860
#
# Disc length: 3152
#
# Revision: 3
# Processed by: cddbd v1.5.1PL0 Copyright (c) Steve Scherf et al.
# Submitted via: audiograbber 1.81.02
# Normalized: r2:DSETVAR1
#
DISCID=b90c4e0e
DTITLE=Various Artist - The Winners 2001 [Disc 1]
DYEAR=2001
DGENRE=Country
TTITLE0=Slim Dusty - Looking Forward Looking Back
TTITLE1=Beccy Cole - This Heart
TTITLE2=Lee Kernaghan - Cunnamulla Teller
TTITLE3=Nicole Brophy and Jodi Moore - Should've Told You
TTITLE4=Bushwackers - Orange Blossom Special
TTITLE5=Brendon Walmsley - What Brothers Do
TTITLE6=Melinda Schneider - From The Inside Out
TTITLE7=Roo Arcus - I'll Call It My Home
TTITLE8=Magnificent Seven - Yes Or No
TTITLE9=Audrey Auld - I'd Leave Me Too
TTITLE10=Kevin Bennett and James Gillard - Higher Ground
TTITLE11=John Williamson and Jimmy Little - This Ancient Land: Corroboree 2000
TTITLE12=Grant Richardson - Huey
TTITLE13=Slim Dusty and Kasey Chambers - Matilda No More
EXTD=CMAA Country Music Awards (Australia)
EXTT0=
EXTT1=
EXTT2=
EXTT3=
EXTT4=
EXTT5=
EXTT6=
EXTT7=
EXTT8=
EXTT9=
EXTT10=
EXTT11=
EXTT12=
EXTT13=
PLAYORDER=
